<?xml version="1.0" standalone="no"?>
<!DOCTYPE svg PUBLIC "-//W3C//DTD SVG 20010904//EN"
 "http://www.w3.org/TR/2001/REC-SVG-20010904/DTD/svg10.dtd">
<svg version="1.0" xmlns="http://www.w3.org/2000/svg"
 width="16384.000000pt" height="10220.000000pt" viewBox="0 0 16384.000000 10220.000000"
 preserveAspectRatio="xMidYMid meet">

<g transform="translate(0.000000,10220.000000) scale(0.100000,-0.100000)"
fill="#000000" stroke="none">
<path d="M380 49428 c0 -32657 3 -47397 10 -47472 28 -291 123 -557 287 -806
103 -155 302 -355 456 -458 192 -128 393 -213 627 -264 l105 -23 80015 0
80015 0 101 22 c585 130 1041 514 1257 1058 48 119 84 262 102 402 13 101 15
5441 15 47509 l0 47394 -55 0 -55 0 0 -47362 c0 -30381 -4 -47399 -10 -47463
-29 -295 -137 -577 -308 -805 -247 -327 -586 -541 -987 -623 l-110 -22 -79975
0 -79975 0 -105 23 c-408 90 -743 303 -981 624 -135 183 -224 381 -282 627
l-22 96 -2 47453 -3 47452 -60 0 -60 0 0 -47362z"/>
</g>
</svg>
